<svg width="31" height="39" viewBox="0 0 31 39" fill="none" xmlns="http://www.w3.org/2000/svg">
<path d="M1.92035 31.6859H30.2456C30.2456 31.6859 29.7655 32.262 29.7655 34.5664C29.7655 36.8709 30.2456 37.447 30.2456 37.447H6.72124C5.44796 37.447 4.22684 36.9412 3.3265 36.0408C2.42616 35.1405 1.92035 33.9194 1.92035 32.6461V31.6859Z" fill="url(#paint0_linear_11_421)"/>
<path d="M6.00111 0C4.40952 0 2.88311 0.632258 1.75769 1.75769C0.632258 2.88311 0 4.40952 0 6.00111V32.406C0 33.9976 0.632258 35.524 1.75769 36.6494C2.88311 37.7749 4.40952 38.4071 6.00111 38.4071H29.5255C29.8438 38.4071 30.1491 38.2807 30.3742 38.0556C30.5993 37.8305 30.7257 37.5252 30.7257 37.2069C30.7257 36.8886 30.5993 36.5833 30.3742 36.3582C30.1491 36.1331 29.8438 36.0067 29.5255 36.0067H6.00111C5.17105 36.0069 4.36642 35.7202 3.7234 35.1953C3.08038 34.6704 2.63847 33.9394 2.47246 33.1261H28.5653C29.1383 33.1261 29.6878 32.8985 30.0929 32.4934C30.4981 32.0882 30.7257 31.5387 30.7257 30.9657V6.00111C30.7257 4.40952 30.0934 2.88311 28.968 1.75769C27.8426 0.632258 26.3162 0 24.7246 0H6.00111Z" fill="url(#paint1_linear_11_421)"/>
<path d="M7.92151 5.76111C7.34854 5.76111 6.79903 5.98872 6.39388 6.39388C5.98872 6.79903 5.76111 7.34854 5.76111 7.92151V12.2423C5.76111 12.526 5.81699 12.8069 5.92556 13.0691C6.03413 13.3312 6.19326 13.5693 6.39388 13.7699C6.59449 13.9706 6.83265 14.1297 7.09476 14.2383C7.35687 14.3468 7.6378 14.4027 7.92151 14.4027H22.8043C23.088 14.4027 23.3689 14.3468 23.631 14.2383C23.8931 14.1297 24.1313 13.9706 24.3319 13.7699C24.5325 13.5693 24.6917 13.3312 24.8002 13.0691C24.9088 12.8069 24.9647 12.526 24.9647 12.2423V7.92151C24.9647 7.34854 24.7371 6.79903 24.3319 6.39388C23.9268 5.98872 23.3772 5.76111 22.8043 5.76111H7.92151Z" fill="url(#paint2_linear_11_421)"/>
<defs>
<linearGradient id="paint0_linear_11_421" x1="15.238" y1="36.2948" x2="15.238" y2="31.6859" gradientUnits="userSpaceOnUse">
<stop stop-color="#9DEAFF"/>
<stop offset="0.716" stop-color="#58AAFE"/>
</linearGradient>
<linearGradient id="paint1_linear_11_421" x1="10.6013" y1="7.18597" x2="16.5103" y2="48.5514" gradientUnits="userSpaceOnUse">
<stop stop-color="#20AC9D"/>
<stop offset="1" stop-color="#2052CB"/>
</linearGradient>
<linearGradient id="paint2_linear_11_421" x1="12.3844" y1="4.27859" x2="22.7687" y2="18.64" gradientUnits="userSpaceOnUse">
<stop stop-color="#9FF0F9"/>
<stop offset="1" stop-color="#6CE0FF"/>
</linearGradient>
</defs>
</svg>
