<svg width="80" height="80" viewBox="0 0 80 80" fill="none" xmlns="http://www.w3.org/2000/svg">
<rect y="5.47943" width="80" height="74.5205" rx="37.2603" fill="#EA993C"/>
<rect x="1.25" y="1.25" width="77.5" height="72.0205" rx="36.0103" fill="#EBD04A" stroke="#FFFAC4" stroke-width="2.5"/>
<path d="M34.915 20.8448C37.5018 16.2062 38.7941 13.8868 40.7275 13.8868C42.6609 13.8868 43.9532 16.2062 46.5399 20.8448L47.2096 22.0453C47.9446 23.3642 48.312 24.0237 48.8837 24.4586C49.4553 24.8935 50.1699 25.0547 51.599 25.3773L52.8975 25.6713C57.9198 26.8085 60.429 27.3761 61.0271 29.2973C61.6233 31.2165 59.9124 33.2194 56.4887 37.2231L55.6026 38.2582C54.6308 39.3954 54.1429 39.965 53.9244 40.6674C53.706 41.3717 53.7795 42.1312 53.9265 43.6482L54.0612 45.0304C54.5777 50.3734 54.837 53.0439 53.2731 54.2301C51.7093 55.4163 49.3573 54.3343 44.6576 52.1701L43.4387 51.6107C42.1035 50.9941 41.4359 50.6878 40.7275 50.6878C40.019 50.6878 39.3514 50.9941 38.0162 51.6107L36.7994 52.1701C32.0976 54.3343 29.7457 55.4163 28.1839 54.2322C26.618 53.0439 26.8773 50.3734 27.3938 45.0304L27.5285 43.6502C27.6755 42.1312 27.749 41.3717 27.5285 40.6694C27.3121 39.965 26.8242 39.3954 25.8524 38.2602L24.9663 37.2231C21.5425 33.2214 19.8317 31.2185 20.4278 29.2973C21.024 27.3761 23.5372 26.8065 28.5595 25.6713L29.858 25.3773C31.2851 25.0547 31.9976 24.8935 32.5713 24.4586C33.145 24.0237 33.5104 23.3642 34.2454 22.0453L34.915 20.8448Z" fill="white"/>
</svg>
