<svg width="80" height="80" viewBox="0 0 80 80" fill="none" xmlns="http://www.w3.org/2000/svg">
<rect y="5.47943" width="80" height="74.5205" rx="37.2603" fill="#889298"/>
<rect x="1.25" y="1.25" width="77.5" height="72.0205" rx="36.0103" fill="#AAB5B6" stroke="#CDD3D3" stroke-width="2.5"/>
<path d="M25.25 55V50.5H56.75V55H25.25ZM25.25 47.125L22.3813 29.0688C22.3063 29.0688 22.2215 29.0785 22.127 29.098C22.0325 29.1175 21.9485 29.1265 21.875 29.125C20.9375 29.125 20.141 28.7965 19.4855 28.1395C18.83 27.4825 18.5015 26.686 18.5 25.75C18.4985 24.814 18.827 24.0175 19.4855 23.3605C20.144 22.7035 20.9405 22.375 21.875 22.375C22.8095 22.375 23.6068 22.7035 24.2668 23.3605C24.9268 24.0175 25.2545 24.814 25.25 25.75C25.25 26.0125 25.2215 26.2563 25.1645 26.4813C25.1075 26.7063 25.0423 26.9125 24.9688 27.1L32 30.25L39.0313 20.6313C38.6188 20.3313 38.2813 19.9375 38.0188 19.45C37.7563 18.9625 37.625 18.4375 37.625 17.875C37.625 16.9375 37.9535 16.1403 38.6105 15.4833C39.2675 14.8263 40.064 14.4985 41 14.5C41.936 14.5015 42.7333 14.83 43.3918 15.4855C44.0503 16.141 44.378 16.9375 44.375 17.875C44.375 18.4375 44.2438 18.9625 43.9813 19.45C43.7188 19.9375 43.3813 20.3313 42.9688 20.6313L50 30.25L57.0313 27.1C56.9563 26.9125 56.8903 26.7063 56.8333 26.4813C56.7763 26.2563 56.7485 26.0125 56.75 25.75C56.75 24.8125 57.0785 24.0153 57.7355 23.3583C58.3925 22.7013 59.189 22.3735 60.125 22.375C61.061 22.3765 61.8583 22.705 62.5168 23.3605C63.1753 24.016 63.503 24.8125 63.5 25.75C63.497 26.6875 63.1693 27.4848 62.5168 28.1418C61.8643 28.7988 61.067 29.1265 60.125 29.125C60.05 29.125 59.966 29.116 59.873 29.098C59.78 29.08 59.6953 29.0703 59.6188 29.0688L56.75 47.125H25.25Z" fill="#E6E6E6"/>
</svg>
