<svg width="84" height="84" viewBox="0 0 84 84" fill="none" xmlns="http://www.w3.org/2000/svg">
<rect y="5.69012" width="83.0774" height="77.3872" rx="38.6936" fill="#EA993C"/>
<rect x="1.25" y="1.25" width="80.5774" height="74.8872" rx="37.4436" fill="#EBD04A" stroke="#FFFAC4" stroke-width="2.5"/>
<path fill-rule="evenodd" clip-rule="evenodd" d="M58.1438 22.0841C58.604 21.8073 59.1536 21.7195 59.6771 21.8391C60.2007 21.9588 60.6576 22.2766 60.9518 22.7259L63.008 25.8621C63.276 26.2718 63.3907 26.763 63.3318 27.249C63.2729 27.7351 63.0442 28.1847 62.6861 28.5185L62.6798 28.5268L62.6508 28.5538L62.5324 28.6639L62.0651 29.1104C59.4794 31.6186 56.972 34.2063 54.5466 36.8698C49.9835 41.8877 44.5648 48.455 40.9177 54.827C39.9 56.6049 37.4139 56.987 35.9393 55.4522L22.4704 41.4578C22.2773 41.2572 22.1266 41.0198 22.0272 40.7597C21.9277 40.4997 21.8816 40.2223 21.8914 39.9441C21.9013 39.6659 21.967 39.3925 22.0847 39.1401C22.2023 38.8878 22.3695 38.6617 22.5763 38.4753L26.6471 34.8033C27.0048 34.4807 27.4635 34.2926 27.9447 34.271C28.4259 34.2494 28.8996 34.3957 29.2848 34.6849L36.1574 39.8378C46.893 29.2516 52.9805 25.1891 58.1438 22.0841Z" fill="white"/>
</svg>
