<svg width="35" height="35" viewBox="0 0 35 35" fill="none" xmlns="http://www.w3.org/2000/svg">
<g clip-path="url(#clip0_9_695)">
<path d="M8.84843 12.0439C8.69257 13.7064 8.5832 16.6486 9.56484 17.9009C9.56484 17.9009 9.10273 14.6689 13.2453 10.6138C14.9133 8.98137 15.2988 6.76105 14.7164 5.09582C14.3855 4.15246 13.7812 3.37316 13.2562 2.82902C12.95 2.5091 13.1852 1.98137 13.6309 2.00051C16.3269 2.12082 20.6965 2.87004 22.5531 7.52941C23.368 9.57473 23.4281 11.6884 23.0398 13.8376C22.7937 15.2103 21.9187 18.2618 23.9148 18.6364C25.3394 18.9044 26.0285 17.7724 26.3375 16.9575C26.466 16.6185 26.9117 16.5337 27.1523 16.8044C29.5586 19.5415 29.7637 22.7654 29.266 25.5407C28.3035 30.9056 22.8703 34.8103 17.4727 34.8103C10.7297 34.8103 5.3621 30.9521 3.97031 23.9685C3.40976 21.1493 3.69414 15.5712 8.04179 11.6337C8.36445 11.3384 8.89218 11.6009 8.84843 12.0439Z" fill="url(#paint0_radial_9_695)"/>
<path d="M19.9363 22.0763C17.4507 18.8771 18.5636 15.2267 19.1734 13.772C19.2554 13.5806 19.0367 13.4002 18.8644 13.5177C17.7953 14.2451 15.605 15.9568 14.5851 18.3658C13.2042 21.6224 13.3027 23.2166 14.1203 25.1634C14.6124 26.3365 14.041 26.5853 13.7538 26.6291C13.4749 26.6728 13.2179 26.4869 13.0128 26.2927C12.423 25.7262 12.0026 25.0066 11.7988 24.2146C11.755 24.0451 11.5335 23.9986 11.4324 24.138C10.6667 25.1962 10.2703 26.8943 10.2511 28.0947C10.191 31.8052 13.2562 34.813 16.964 34.813C21.6371 34.813 25.0413 29.6451 22.3562 25.3248C21.5769 24.0669 20.8441 23.2439 19.9363 22.0763Z" fill="url(#paint1_radial_9_695)"/>
</g>
<defs>
<radialGradient id="paint0_radial_9_695" cx="0" cy="0" r="1" gradientTransform="matrix(-19.3011 -0.0837669 -0.137617 31.6693 16.1371 34.8953)" gradientUnits="userSpaceOnUse">
<stop offset="0.314" stop-color="#FF9800"/>
<stop offset="0.662" stop-color="#FF6D00"/>
<stop offset="0.972" stop-color="#F44336"/>
</radialGradient>
<radialGradient id="paint1_radial_9_695" cx="0" cy="0" r="1" gradientTransform="matrix(-0.203981 20.1941 15.1976 0.15349 17.221 15.6884)" gradientUnits="userSpaceOnUse">
<stop offset="0.214" stop-color="#FFF176"/>
<stop offset="0.328" stop-color="#FFF27D"/>
<stop offset="0.487" stop-color="#FFF48F"/>
<stop offset="0.672" stop-color="#FFF7AD"/>
<stop offset="0.793" stop-color="#FFF9C4"/>
<stop offset="0.822" stop-color="#FFF8BD" stop-opacity="0.804"/>
<stop offset="0.863" stop-color="#FFF6AB" stop-opacity="0.529"/>
<stop offset="0.91" stop-color="#FFF38D" stop-opacity="0.209"/>
<stop offset="0.941" stop-color="#FFF176" stop-opacity="0"/>
</radialGradient>
<clipPath id="clip0_9_695">
<rect width="35" height="35" fill="white"/>
</clipPath>
</defs>
</svg>
