<svg width="25" height="23" viewBox="0 0 25 23" fill="none" xmlns="http://www.w3.org/2000/svg">
<path d="M17.6225 11.8436C17.2867 11.7534 16.9365 11.7303 16.5918 11.7756C16.2471 11.8209 15.9146 11.9336 15.6135 12.1075C15.3124 12.2813 15.0485 12.5127 14.8369 12.7886C14.6253 13.0645 14.4701 13.3793 14.3803 13.7152L13.6958 16.2712C13.3325 17.6271 13.5227 19.0717 14.2246 20.2873C14.9264 21.5028 16.0824 22.3898 17.4382 22.7531C18.794 23.1164 20.2386 22.9262 21.4542 22.2244C22.6698 21.5226 23.5568 20.3666 23.9201 19.0108L24.6045 16.4529C24.7856 15.7755 24.6904 15.0539 24.3398 14.4466C23.9892 13.8394 23.4119 13.3961 22.7347 13.2142L17.6225 11.8436Z" fill="url(#paint0_radial_11_903)"/>
<path d="M7.07371 11.8436C7.40937 11.7537 7.75946 11.7308 8.10398 11.7762C8.44849 11.8216 8.78069 11.9345 9.0816 12.1083C9.38251 12.2821 9.64624 12.5134 9.85773 12.7892C10.0692 13.0649 10.2243 13.3796 10.3142 13.7152L10.9986 16.2713C11.1889 16.9458 11.2433 17.6513 11.1587 18.347C11.074 19.0426 10.8521 19.7146 10.5057 20.3238C10.1593 20.9329 9.69537 21.4673 9.14081 21.8957C8.58625 22.3242 7.95211 22.6382 7.27521 22.8196C6.59831 23.001 5.89211 23.0462 5.19762 22.9525C4.50312 22.8587 3.83416 22.628 3.22955 22.2737C2.62494 21.9193 2.09672 21.4485 1.67557 20.8883C1.25441 20.3282 0.948695 19.69 0.776166 19.0108L0.0899638 16.453C-0.091051 15.7753 0.00441053 15.0535 0.355367 14.4462C0.706324 13.8389 1.28406 13.3958 1.96159 13.2143L7.07371 11.8436Z" fill="url(#paint1_radial_11_903)"/>
<path d="M9.70209 10.5841C9.00032 10.5841 8.3273 10.8629 7.83107 11.3591C7.33484 11.8553 7.05607 12.5284 7.05607 13.2301V17.6402C7.05607 19.0437 7.61362 20.3898 8.60607 21.3822C9.59853 22.3747 10.9446 22.9322 12.3481 22.9322C13.7517 22.9322 15.0977 22.3747 16.0902 21.3822C17.0826 20.3898 17.6402 19.0437 17.6402 17.6402V13.2301C17.6402 12.5284 17.3614 11.8553 16.8652 11.3591C16.3689 10.8629 15.6959 10.5841 14.9941 10.5841H9.70209Z" fill="url(#paint2_radial_11_903)"/>
<path d="M12.3481 0C11.1785 0 10.0568 0.464628 9.22974 1.29167C8.4027 2.11871 7.93807 3.24043 7.93807 4.41004C7.93807 5.57966 8.4027 6.70137 9.22974 7.52841C10.0568 8.35546 11.1785 8.82008 12.3481 8.82008C13.5177 8.82008 14.6394 8.35546 15.4665 7.52841C16.2935 6.70137 16.7582 5.57966 16.7582 4.41004C16.7582 3.24043 16.2935 2.11871 15.4665 1.29167C14.6394 0.464628 13.5177 0 12.3481 0Z" fill="url(#paint3_radial_11_903)"/>
<path d="M3.52803 3.52808C2.59234 3.52808 1.69497 3.89978 1.03334 4.56141C0.371703 5.22305 0 6.12042 0 7.05611C0 7.9918 0.371703 8.88917 1.03334 9.55081C1.69497 10.2124 2.59234 10.5841 3.52803 10.5841C4.46373 10.5841 5.3611 10.2124 6.02273 9.55081C6.68436 8.88917 7.05607 7.9918 7.05607 7.05611C7.05607 6.12042 6.68436 5.22305 6.02273 4.56141C5.3611 3.89978 4.46373 3.52808 3.52803 3.52808Z" fill="url(#paint4_radial_11_903)"/>
<path d="M21.1682 3.52808C20.2325 3.52808 19.3351 3.89978 18.6735 4.56141C18.0119 5.22305 17.6402 6.12042 17.6402 7.05611C17.6402 7.9918 18.0119 8.88917 18.6735 9.55081C19.3351 10.2124 20.2325 10.5841 21.1682 10.5841C22.1039 10.5841 23.0013 10.2124 23.6629 9.55081C24.3245 8.88917 24.6962 7.9918 24.6962 7.05611C24.6962 6.12042 24.3245 5.22305 23.6629 4.56141C23.0013 3.89978 22.1039 3.52808 21.1682 3.52808Z" fill="url(#paint5_radial_11_903)"/>
<defs>
<radialGradient id="paint0_radial_11_903" cx="0" cy="0" r="1" gradientUnits="userSpaceOnUse" gradientTransform="translate(17.3091 14.8874) rotate(78.837) scale(8.20116)">
<stop stop-color="#0078D4"/>
<stop offset="1" stop-color="#004695"/>
</radialGradient>
<radialGradient id="paint1_radial_11_903" cx="0" cy="0" r="1" gradientUnits="userSpaceOnUse" gradientTransform="translate(2.74066 12.2769) rotate(61.056) scale(12.1784 8.76605)">
<stop stop-color="#008CE2"/>
<stop offset="1" stop-color="#0068C6"/>
</radialGradient>
<radialGradient id="paint2_radial_11_903" cx="0" cy="0" r="1" gradientUnits="userSpaceOnUse" gradientTransform="translate(11.328 14.9199) rotate(63.608) scale(7.45151 6.84274)">
<stop offset="0.339" stop-color="#3DCBFF"/>
<stop offset="1" stop-color="#14B1FF"/>
</radialGradient>
<radialGradient id="paint3_radial_11_903" cx="0" cy="0" r="1" gradientUnits="userSpaceOnUse" gradientTransform="translate(11.4991 3.09609) rotate(59.931) scale(5.50913)">
<stop offset="0.339" stop-color="#3DCBFF"/>
<stop offset="1" stop-color="#14B1FF"/>
</radialGradient>
<radialGradient id="paint4_radial_11_903" cx="0" cy="0" r="1" gradientUnits="userSpaceOnUse" gradientTransform="translate(2.04217 5.66739) rotate(47.573) scale(5.7856)">
<stop stop-color="#008CE2"/>
<stop offset="1" stop-color="#0068C6"/>
</radialGradient>
<radialGradient id="paint5_radial_11_903" cx="0" cy="0" r="1" gradientUnits="userSpaceOnUse" gradientTransform="translate(20.0355 5.50583) rotate(78.837) scale(5.17568)">
<stop stop-color="#0078D4"/>
<stop offset="1" stop-color="#004695"/>
</radialGradient>
</defs>
</svg>
