<svg width="26" height="26" viewBox="0 0 26 26" fill="none" xmlns="http://www.w3.org/2000/svg">
<path d="M13 26C16.4478 26 19.7544 24.6303 22.1924 22.1924C24.6303 19.7544 26 16.4478 26 13C26 9.55218 24.6303 6.24558 22.1924 3.80761C19.7544 1.36964 16.4478 0 13 0C9.55218 0 6.24558 1.36964 3.80761 3.80761C1.36964 6.24558 0 9.55218 0 13C0 16.4478 1.36964 19.7544 3.80761 22.1924C6.24558 24.6303 9.55218 26 13 26Z" fill="url(#paint0_linear_11_911)"/>
<path fill-rule="evenodd" clip-rule="evenodd" d="M9.51112 0.472884C8.97014 1.23331 8.52479 2.05742 8.18512 2.92663C7.58712 4.39888 7.12887 6.16851 6.84287 8.125H0.9425C0.73125 8.65042 0.5525 9.19209 0.40625 9.75H6.64625C6.44941 11.9122 6.44995 14.0879 6.64787 16.25H0.407875C0.554125 16.8079 0.732875 17.3496 0.944125 17.875H6.84287C7.12887 19.8315 7.58712 21.6011 8.18512 23.0734C8.52479 23.9426 8.97014 24.7667 9.51112 25.5271C10.6473 25.8422 11.821 26.0013 13 26C14.179 26.0013 15.3527 25.8422 16.4889 25.5271C17.0298 24.7667 17.4752 23.9426 17.8149 23.0734C18.4129 21.6011 18.8711 19.8315 19.1571 17.875H25.0559C25.2671 17.3496 25.4453 16.8079 25.5905 16.25H19.3505C19.5515 14.088 19.5515 11.912 19.3505 9.75H25.5905C25.4476 9.19715 25.2685 8.65431 25.0542 8.125H19.1587C18.8727 6.16851 18.4145 4.39888 17.8165 2.92663C17.4768 2.05742 17.0315 1.23331 16.4905 0.472884C15.3538 0.157633 14.1796 -0.00145173 13 9.98161e-06C11.821 -0.0013043 10.6473 0.157779 9.51112 0.472884ZM8.48737 8.125C8.75712 6.37651 9.16987 4.81813 9.68987 3.53926C10.1741 2.34813 10.7331 1.43976 11.3197 0.841759C11.9015 0.248635 12.467 9.98161e-06 13 9.98161e-06C13.533 9.98161e-06 14.0985 0.248635 14.6802 0.841759C15.2652 1.43976 15.8259 2.34813 16.3101 3.53926C16.8301 4.81813 17.2429 6.37651 17.5126 8.125H8.48737ZM13 26C13.533 26 14.0985 25.7514 14.6802 25.1582C15.2652 24.5602 15.8259 23.6519 16.3101 22.4607C16.8301 21.1819 17.2429 19.6235 17.5126 17.875H8.48737C8.75874 19.6235 9.17149 21.1819 9.69149 22.4607C10.1757 23.6519 10.7347 24.5602 11.3214 25.1582C11.9031 25.7514 12.4686 26 13.0016 26M8.12662 13C8.12662 14.1245 8.18024 15.2132 8.28262 16.25H17.7206C17.8237 15.1697 17.8752 14.0852 17.875 13C17.875 11.8755 17.8214 10.7868 17.719 9.75H8.28099C8.17735 10.8302 8.12691 11.9148 8.12662 13Z" fill="url(#paint1_radial_11_911)"/>
<defs>
<linearGradient id="paint0_linear_11_911" x1="5.7785" y1="4.33387" x2="24.5554" y2="21.6661" gradientUnits="userSpaceOnUse">
<stop stop-color="#29C3FF"/>
<stop offset="1" stop-color="#2052CB"/>
</linearGradient>
<radialGradient id="paint1_radial_11_911" cx="0" cy="0" r="1" gradientUnits="userSpaceOnUse" gradientTransform="translate(21.1245 19.505) rotate(-135) scale(20.6883)">
<stop stop-color="#25A2F0"/>
<stop offset="0.974" stop-color="#3BD5FF"/>
</radialGradient>
</defs>
</svg>
