<svg width="28" height="28" viewBox="0 0 28 28" fill="none" xmlns="http://www.w3.org/2000/svg">
<path d="M14.604 6.19288C15.1821 5.54132 15.885 5.01222 16.671 4.63684C17.457 4.26147 18.3103 4.04744 19.1805 4.00738C20.0506 3.96733 20.92 4.10207 21.7372 4.40364C22.5544 4.70522 23.3029 5.16751 23.9384 5.76321C24.574 6.35891 25.0837 7.07594 25.4374 7.87194C25.7912 8.66794 25.9818 9.52677 25.9981 10.3977C26.0144 11.2686 25.856 12.134 25.5322 12.9426C25.2084 13.7513 24.7258 14.4869 24.113 15.1059L14.533 24.7779C14.4633 24.8483 14.3802 24.9043 14.2888 24.9424C14.1973 24.9806 14.0991 25.0002 14 25.0002C13.9009 25.0002 13.8027 24.9806 13.7112 24.9424C13.6198 24.9043 13.5367 24.8483 13.467 24.7779L3.887 15.1059C2.72542 13.9325 2.05228 12.3621 2.00346 10.7117C1.95465 9.06132 2.5338 7.45389 3.624 6.21388C6.212 3.27088 10.794 3.26088 13.396 6.19288L14 6.87288L14.604 6.19288Z" fill="url(#paint0_linear_85_506)"/>
<defs>
<linearGradient id="paint0_linear_85_506" x1="-3.25" y1="-2.00012" x2="9.612" y2="24.9799" gradientUnits="userSpaceOnUse">
<stop stop-color="#FFB19F"/>
<stop offset="1" stop-color="#FF0000"/>
</linearGradient>
</defs>
</svg>
