<svg width="40" height="40" viewBox="0 0 40 40" fill="none" xmlns="http://www.w3.org/2000/svg">
<path d="M13.7955 23.1575H26.2266V40H13.7955V23.1575Z" fill="url(#paint0_linear_6_1269)"/>
<path d="M22.4911 3.00442C21.7915 2.42284 20.9155 2.1051 20.0116 2.1051C19.1077 2.1051 18.2317 2.42284 17.5321 3.00442L3.88384 14.312C3.41924 14.6988 3.04512 15.1858 2.78855 15.7376C2.53198 16.2894 2.3994 16.8923 2.4004 17.5026V35.9083C2.4004 38.1684 4.17493 40 6.3628 40H14.8315V26.8418C14.8315 26.1438 15.1043 25.4745 15.59 24.9809C16.0757 24.4874 16.7344 24.2102 17.4213 24.2102H22.6009C23.2878 24.2102 23.9465 24.4874 24.4322 24.9809C24.9178 25.4745 25.1907 26.1438 25.1907 26.8418V40H33.6594C35.8483 40 37.6218 38.1684 37.6218 35.9083V17.5026C37.623 16.8925 37.4908 16.2897 37.2346 15.7379C36.9784 15.1861 36.6046 14.699 36.1404 14.312L22.4911 3.00442Z" fill="url(#paint1_linear_6_1269)"/>
<path fill-rule="evenodd" clip-rule="evenodd" d="M20.0121 4.55603L3.43734 18.4669C3.00647 18.8208 2.45674 18.99 1.90501 18.9385C1.35328 18.887 0.843084 18.6189 0.482888 18.1911C0.307213 17.9812 0.174768 17.7377 0.0934007 17.4749C0.0120332 17.2121 -0.0166026 16.9353 0.00918928 16.6611C0.0349812 16.3868 0.114676 16.1206 0.243554 15.8782C0.372432 15.6358 0.547871 15.4222 0.759479 15.25L18.1599 0.660152C18.6758 0.237337 19.3175 0.00465733 19.9803 6.91742e-05C20.6431 -0.00451898 21.2879 0.219256 21.8094 0.634889L39.2181 14.9384C39.432 15.1076 39.6104 15.3187 39.7426 15.5592C39.8748 15.7997 39.9582 16.0647 39.9878 16.3385C40.0175 16.6124 39.9928 16.8895 39.9152 17.1534C39.8376 17.4174 39.7087 17.6628 39.5361 17.8753C39.1816 18.3078 38.675 18.5828 38.1241 18.6418C37.5731 18.7008 37.0213 18.5391 36.5858 18.1911L20.0121 4.55603Z" fill="url(#paint2_linear_6_1269)"/>
<defs>
<linearGradient id="paint0_linear_6_1269" x1="20.0111" y1="23.1575" x2="8.78439" y2="41.5781" gradientUnits="userSpaceOnUse">
<stop stop-color="#944600"/>
<stop offset="1" stop-color="#CD8E02"/>
</linearGradient>
<linearGradient id="paint1_linear_6_1269" x1="5.763" y1="0.25172" x2="42.3026" y2="27.8552" gradientUnits="userSpaceOnUse">
<stop stop-color="#FFD394"/>
<stop offset="1" stop-color="#FFB357"/>
</linearGradient>
<linearGradient id="paint2_linear_6_1269" x1="13.5366" y1="-4.50102" x2="21.5217" y2="18.2912" gradientUnits="userSpaceOnUse">
<stop stop-color="#FF921F"/>
<stop offset="1" stop-color="#EB4824"/>
</linearGradient>
</defs>
</svg>
