<svg width="80" height="80" viewBox="0 0 80 80" fill="none" xmlns="http://www.w3.org/2000/svg">
<rect y="5.47943" width="80" height="74.5205" rx="37.2603" fill="#889298"/>
<rect x="1.25" y="1.25" width="77.5" height="72.0205" rx="36.0103" fill="#AAB5B6" stroke="#CDD3D3" stroke-width="2.5"/>
<path fill-rule="evenodd" clip-rule="evenodd" d="M21.6862 33.4247C21.6862 31.7551 22.3494 30.1539 23.53 28.9734C24.7106 27.7928 26.3117 27.1296 27.9813 27.1296H53.1617C54.8312 27.1296 56.4324 27.7928 57.613 28.9734C58.7935 30.1539 59.4568 31.7551 59.4568 33.4247V48.1132C59.4568 49.7828 58.7935 51.384 57.613 52.5645C56.4324 53.7451 54.8312 54.4083 53.1617 54.4083H27.9813C26.3117 54.4083 24.7106 53.7451 23.53 52.5645C22.3494 51.384 21.6862 49.7828 21.6862 48.1132V33.4247ZM42.6699 37.6214C42.6699 37.0649 42.4488 36.5311 42.0553 36.1376C41.6617 35.7441 41.128 35.523 40.5715 35.523C40.015 35.523 39.4812 35.7441 39.0877 36.1376C38.6942 36.5311 38.4731 37.0649 38.4731 37.6214V43.9165C38.4731 44.473 38.6942 45.0067 39.0877 45.4003C39.4812 45.7938 40.015 46.0149 40.5715 46.0149C41.128 46.0149 41.6617 45.7938 42.0553 45.4003C42.4488 45.0067 42.6699 44.473 42.6699 43.9165V37.6214Z" fill="#E6E6E6"/>
<path d="M32.178 29.2279V22.9328C32.178 20.7067 33.0623 18.5718 34.6364 16.9978C36.2105 15.4237 38.3454 14.5394 40.5715 14.5394C42.7976 14.5394 44.9325 15.4237 46.5066 16.9978C48.0806 18.5718 48.965 20.7067 48.965 22.9328V29.2279" stroke="#E6E6E6" stroke-width="2" stroke-linecap="round" stroke-linejoin="round"/>
</svg>
