<svg width="60" height="41" viewBox="0 0 60 41" fill="none" xmlns="http://www.w3.org/2000/svg">
<path fill-rule="evenodd" clip-rule="evenodd" d="M36.0812 0.973006C37.4833 0.131815 39.1408 -0.178348 40.7522 0.0988914L44.2714 0.704397C45.7097 0.952618 47.0671 1.54293 48.2295 2.42558C49.3918 3.30823 50.325 4.45735 50.9502 5.7761L56.4135 17.2808C58.963 22.6985 59.5412 27.2329 58.9994 30.9479C58.5713 33.9865 57.275 36.8368 55.2662 39.1565C54.7077 39.8129 53.9958 40.3214 53.1937 40.6367C52.3916 40.952 51.524 41.0644 50.668 40.9639C49.0634 40.7623 47.5954 39.9584 46.5614 38.7149L42.8373 34.2987C42.1962 33.5398 41.3972 32.9299 40.4961 32.5116C39.595 32.0933 38.6134 31.8766 37.62 31.8767H21.5672C20.5733 31.8772 19.5916 32.0945 18.6904 32.5137C17.7893 32.9328 16.9905 33.5435 16.3498 34.3033L12.6257 38.7149C11.5785 39.9532 10.108 40.7954 8.51914 40.9639C7.66352 41.0649 6.79619 40.9532 5.99408 40.6387C5.19197 40.3242 4.47986 39.8167 3.92092 39.161C1.91052 36.8389 0.614095 33.9852 0.187708 30.9434C-0.358615 27.233 0.224131 22.6985 2.77819 17.2853V17.2762L8.23687 5.7761C8.86216 4.45735 9.79529 3.30823 10.9576 2.42558C12.12 1.54293 13.4775 0.952618 14.9157 0.704397L18.4349 0.0988914C20.0464 -0.178348 21.7038 0.131815 23.106 0.973006L23.6751 1.31446C24.7358 1.95183 25.9514 2.28418 27.1806 2.28418H32.0065C33.2412 2.28379 34.4527 1.94866 35.5121 1.31446L36.0812 0.973006Z" fill="url(#paint0_linear_56_466)"/>
<path d="M33.0081 14.8042C33.0081 15.2526 32.9198 15.6966 32.7482 16.1109C32.5766 16.5251 32.3251 16.9015 32.008 17.2186C31.691 17.5357 31.3145 17.7872 30.9003 17.9588C30.486 18.1304 30.042 18.2187 29.5936 18.2187C29.1452 18.2187 28.7012 18.1304 28.2869 17.9588C27.8726 17.7872 27.4962 17.5357 27.1792 17.2186C26.8621 16.9015 26.6106 16.5251 26.439 16.1109C26.2674 15.6966 26.1791 15.2526 26.1791 14.8042C26.1791 13.8986 26.5388 13.0301 27.1792 12.3897C27.8195 11.7494 28.688 11.3896 29.5936 11.3896C30.4992 11.3896 31.3677 11.7494 32.008 12.3897C32.6484 13.0301 33.0081 13.8986 33.0081 14.8042Z" fill="#3E3E3E"/>
<defs>
<linearGradient id="paint0_linear_56_466" x1="9.67552" y1="6.26779" x2="29.2794" y2="43.4952" gradientUnits="userSpaceOnUse">
<stop stop-color="#B5BBCE"/>
<stop offset="0.384" stop-color="#A0A7BE"/>
<stop offset="1" stop-color="#728192"/>
</linearGradient>
</defs>
</svg>
