<svg width="46" height="46" viewBox="0 0 46 46" fill="none" xmlns="http://www.w3.org/2000/svg">
<g filter="url(#filter0_d_80_923)">
<path d="M17.3708 6.37042C19.7391 2.12347 20.9223 0 22.6924 0C24.4625 0 25.6458 2.12347 28.014 6.37042L28.6271 7.46954C29.3 8.67708 29.6365 9.28085 30.1599 9.679C30.6832 10.0771 31.3375 10.2248 32.6459 10.5202L33.8347 10.7893C38.4329 11.8305 40.7302 12.3502 41.2779 14.1091C41.8237 15.8662 40.2573 17.7 37.1226 21.3656L36.3114 22.3133C35.4217 23.3545 34.9749 23.876 34.7749 24.519C34.5749 25.1639 34.6422 25.8593 34.7768 27.2481L34.9002 28.5136C35.3731 33.4054 35.6104 35.8504 34.1786 36.9365C32.7468 38.0225 30.5935 37.0318 26.2906 35.0504L25.1747 34.5382C23.9523 33.9737 23.341 33.6933 22.6924 33.6933C22.0438 33.6933 21.4326 33.9737 20.2101 34.5382L19.0961 35.0504C14.7913 37.0318 12.638 38.0225 11.2081 36.9383C9.77439 35.8504 10.0118 33.4054 10.4847 28.5136L10.6081 27.25C10.7426 25.8593 10.8099 25.1639 10.6081 24.5209C10.4099 23.876 9.96318 23.3545 9.07344 22.3152L8.26221 21.3656C5.12757 17.7018 3.56118 15.8681 4.10698 14.1091C4.65279 12.3502 6.95377 11.8286 11.552 10.7893L12.7408 10.5202C14.0474 10.2248 14.6997 10.0771 15.225 9.679C15.7502 9.28085 16.0848 8.67708 16.7577 7.46954L17.3708 6.37042Z" fill="#CDD3D3"/>
</g>
<defs>
<filter id="filter0_d_80_923" x="0" y="0" width="45.3848" height="45.3848" filterUnits="userSpaceOnUse" color-interpolation-filters="sRGB">
<feFlood flood-opacity="0" result="BackgroundImageFix"/>
<feColorMatrix in="SourceAlpha" type="matrix" values="0 0 0 0 0 0 0 0 0 0 0 0 0 0 0 0 0 0 127 0" result="hardAlpha"/>
<feOffset dy="4"/>
<feGaussianBlur stdDeviation="2"/>
<feComposite in2="hardAlpha" operator="out"/>
<feColorMatrix type="matrix" values="0 0 0 0 1 0 0 0 0 1 0 0 0 0 1 0 0 0 0.25 0"/>
<feBlend mode="normal" in2="BackgroundImageFix" result="effect1_dropShadow_80_923"/>
<feBlend mode="normal" in="SourceGraphic" in2="effect1_dropShadow_80_923" result="shape"/>
</filter>
</defs>
</svg>
