<svg width="32" height="39" viewBox="0 0 32 39" fill="none" xmlns="http://www.w3.org/2000/svg">
<path d="M26.4825 20.2512C27.7219 20.2512 28.9106 20.7436 29.7871 21.62C30.6635 22.4964 31.1559 23.6851 31.1559 24.9246V26.4824C31.1559 32.6232 25.3609 38.9447 15.5779 38.9447C5.79499 38.9447 0 32.6232 0 26.4824V24.9246C0 23.6851 0.492372 22.4964 1.3688 21.62C2.24523 20.7436 3.43392 20.2512 4.67338 20.2512H26.4825Z" fill="url(#paint0_linear_11_458)"/>
<path d="M26.4825 20.2512C27.7219 20.2512 28.9106 20.7436 29.7871 21.62C30.6635 22.4964 31.1559 23.6851 31.1559 24.9246V26.4824C31.1559 32.6232 25.3609 38.9447 15.5779 38.9447C5.79499 38.9447 0 32.6232 0 26.4824V24.9246C0 23.6851 0.492372 22.4964 1.3688 21.62C2.24523 20.7436 3.43392 20.2512 4.67338 20.2512H26.4825Z" fill="url(#paint1_linear_11_458)"/>
<path d="M15.5779 0C17.8502 0 20.0295 0.902683 21.6363 2.50947C23.243 4.11625 24.1457 6.29552 24.1457 8.56786C24.1457 10.8402 23.243 13.0195 21.6363 14.6263C20.0295 16.233 17.8502 17.1357 15.5779 17.1357C13.3055 17.1357 11.1263 16.233 9.51948 14.6263C7.91269 13.0195 7.01001 10.8402 7.01001 8.56786C7.01001 6.29552 7.91269 4.11625 9.51948 2.50947C11.1263 0.902683 13.3055 0 15.5779 0Z" fill="url(#paint2_linear_11_458)"/>
<defs>
<linearGradient id="paint0_linear_11_458" x1="7.40886" y1="22.7375" x2="14.3815" y2="41.2939" gradientUnits="userSpaceOnUse">
<stop offset="0.125" stop-color="#9C6CFE"/>
<stop offset="1" stop-color="#7A41DC"/>
</linearGradient>
<linearGradient id="paint1_linear_11_458" x1="15.5779" y1="18.0267" x2="25.4356" y2="48.7246" gradientUnits="userSpaceOnUse">
<stop stop-color="#885EDB" stop-opacity="0"/>
<stop offset="1" stop-color="#E362F8"/>
</linearGradient>
<linearGradient id="paint2_linear_11_458" x1="11.0852" y1="2.27749" x2="19.8182" y2="16.2229" gradientUnits="userSpaceOnUse">
<stop offset="0.125" stop-color="#9C6CFE"/>
<stop offset="1" stop-color="#7A41DC"/>
</linearGradient>
</defs>
</svg>
