<svg width="48" height="54" viewBox="0 0 48 54" fill="none" xmlns="http://www.w3.org/2000/svg">
<path d="M24 31L35 52H13L24 31Z" fill="#B5B4B2"/>
<path d="M21.75 3.03125C23.0553 2.27765 24.6446 2.23026 25.9854 2.88965L26.25 3.03125L41.0342 11.5674C42.4264 12.3712 43.2841 13.8563 43.2842 15.4639V32.5361C43.2841 34.1437 42.4264 35.6288 41.0342 36.4326L26.25 44.9688C24.8577 45.7726 23.1423 45.7726 21.75 44.9688L6.96582 36.4326C5.57358 35.6288 4.7159 34.1437 4.71582 32.5361V15.4639C4.7159 13.8563 5.57358 12.3712 6.96582 11.5674L21.75 3.03125Z" fill="#B5B4B2" stroke="#DBD2D1" stroke-width="3"/>
<rect x="13" y="51" width="22" height="3" rx="1.5" fill="#DBD2D1"/>
<path d="M19.416 18.376C19.416 17.88 19.6 17.464 19.968 17.128C20.336 16.776 20.84 16.512 21.48 16.336C22.12 16.16 22.864 16.072 23.712 16.072C24.912 16.072 25.92 16.264 26.736 16.648C27.568 17.016 28.192 17.536 28.608 18.208C29.04 18.864 29.256 19.616 29.256 20.464C29.256 21.312 29.016 22.144 28.536 22.96C28.056 23.76 27.312 24.584 26.304 25.432L22.968 28.216H29.064C29.144 28.344 29.224 28.536 29.304 28.792C29.384 29.032 29.424 29.296 29.424 29.584C29.424 30.08 29.312 30.44 29.088 30.664C28.864 30.888 28.568 31 28.2 31H19.824C19.52 30.792 19.28 30.52 19.104 30.184C18.944 29.848 18.864 29.472 18.864 29.056C18.864 28.576 18.96 28.176 19.152 27.856C19.36 27.52 19.584 27.24 19.824 27.016L23.376 23.872C24.24 23.12 24.832 22.504 25.152 22.024C25.472 21.544 25.632 21.088 25.632 20.656C25.632 20.128 25.432 19.712 25.032 19.408C24.648 19.088 24.088 18.928 23.352 18.928C22.696 18.928 22.104 19.04 21.576 19.264C21.064 19.472 20.64 19.688 20.304 19.912C20.064 19.752 19.856 19.544 19.68 19.288C19.504 19.032 19.416 18.728 19.416 18.376Z" fill="white"/>
</svg>
