<svg width="48" height="81" viewBox="0 0 48 81" fill="none" xmlns="http://www.w3.org/2000/svg">
<path d="M24 31L35 52H13L24 31Z" fill="#B06918"/>
<path d="M21.75 3.03125C23.0553 2.27765 24.6446 2.23026 25.9854 2.88965L26.25 3.03125L41.0342 11.5674C42.4264 12.3712 43.2841 13.8563 43.2842 15.4639V32.5361C43.2841 34.1437 42.4264 35.6288 41.0342 36.4326L26.25 44.9688C24.8577 45.7726 23.1423 45.7726 21.75 44.9688L6.96582 36.4326C5.57358 35.6288 4.7159 34.1437 4.71582 32.5361V15.4639C4.7159 13.8563 5.57358 12.3712 6.96582 11.5674L21.75 3.03125Z" fill="#B06918" stroke="#BF8523" stroke-width="3"/>
<rect x="13" y="51" width="22" height="3" rx="1.5" fill="#BF8523"/>
<path d="M23.496 16.048C25.256 16.048 26.616 16.424 27.576 17.176C28.536 17.912 29.016 18.92 29.016 20.2C29.016 20.744 28.912 21.232 28.704 21.664C28.496 22.08 28.232 22.432 27.912 22.72C27.592 23.008 27.248 23.232 26.88 23.392C27.328 23.536 27.736 23.76 28.104 24.064C28.488 24.368 28.792 24.76 29.016 25.24C29.256 25.704 29.376 26.28 29.376 26.968C29.376 27.88 29.128 28.672 28.632 29.344C28.136 30 27.448 30.504 26.568 30.856C25.704 31.192 24.696 31.36 23.544 31.36C22.504 31.36 21.616 31.256 20.88 31.048C20.16 30.856 19.608 30.584 19.224 30.232C18.84 29.864 18.648 29.464 18.648 29.032C18.648 28.648 18.736 28.312 18.912 28.024C19.104 27.736 19.336 27.52 19.608 27.376C19.96 27.616 20.408 27.864 20.952 28.12C21.512 28.376 22.232 28.504 23.112 28.504C23.976 28.504 24.64 28.336 25.104 28C25.568 27.664 25.8 27.216 25.8 26.656C25.8 26.112 25.608 25.688 25.224 25.384C24.84 25.08 24.216 24.928 23.352 24.928H21.168C21.056 24.768 20.96 24.576 20.88 24.352C20.816 24.112 20.784 23.84 20.784 23.536C20.784 23.216 20.816 22.936 20.88 22.696C20.96 22.456 21.056 22.264 21.168 22.12H23.304C24.04 22.12 24.576 21.984 24.912 21.712C25.248 21.44 25.416 21.048 25.416 20.536C25.416 20.04 25.208 19.648 24.792 19.36C24.376 19.056 23.768 18.904 22.968 18.904C22.296 18.904 21.696 18.992 21.168 19.168C20.656 19.344 20.232 19.552 19.896 19.792C19.656 19.616 19.448 19.4 19.272 19.144C19.112 18.888 19.032 18.592 19.032 18.256C19.032 17.776 19.216 17.376 19.584 17.056C19.952 16.736 20.472 16.488 21.144 16.312C21.832 16.136 22.616 16.048 23.496 16.048Z" fill="white"/>
</svg>
