<svg width="48" height="54" viewBox="0 0 48 54" fill="none" xmlns="http://www.w3.org/2000/svg">
<path d="M24 31L35 52H13L24 31Z" fill="#EFB720"/>
<path d="M21.75 3.03125C23.0553 2.27765 24.6446 2.23026 25.9854 2.88965L26.25 3.03125L41.0342 11.5674C42.4264 12.3712 43.2841 13.8563 43.2842 15.4639V32.5361C43.2841 34.1437 42.4264 35.6288 41.0342 36.4326L26.25 44.9688C24.8577 45.7726 23.1423 45.7726 21.75 44.9688L6.96582 36.4326C5.57358 35.6288 4.7159 34.1437 4.71582 32.5361V15.4639C4.7159 13.8563 5.57358 12.3712 6.96582 11.5674L21.75 3.03125Z" fill="#EFB720" stroke="#FFD950" stroke-width="3"/>
<rect x="13" y="51" width="22" height="3" rx="1.5" fill="#FFD950"/>
<path d="M26.392 27.328H22.816V19.816L20.272 20.728C20.032 20.584 19.8 20.384 19.576 20.128C19.368 19.872 19.264 19.52 19.264 19.072C19.264 18.224 19.776 17.632 20.8 17.296L23.656 16.24H24.448C25.04 16.24 25.512 16.416 25.864 16.768C26.216 17.12 26.392 17.592 26.392 18.184V27.328ZM22.816 24.664H26.392V30.976C26.232 31.024 26.008 31.072 25.72 31.12C25.432 31.168 25.12 31.192 24.784 31.192C24.112 31.192 23.616 31.072 23.296 30.832C22.976 30.592 22.816 30.152 22.816 29.512V24.664Z" fill="white"/>
</svg>
