<svg width="46" height="46" viewBox="0 0 46 46" fill="none" xmlns="http://www.w3.org/2000/svg">
<g filter="url(#filter0_d_41_586)">
<path d="M17.3708 6.37042C19.7391 2.12347 20.9223 0 22.6924 0C24.4625 0 25.6458 2.12347 28.014 6.37042L28.6271 7.46954C29.3 8.67708 29.6365 9.28085 30.1599 9.679C30.6832 10.0771 31.3375 10.2248 32.6459 10.5202L33.8347 10.7893C38.4329 11.8305 40.7302 12.3502 41.2779 14.1091C41.8237 15.8662 40.2573 17.7 37.1226 21.3656L36.3114 22.3133C35.4217 23.3545 34.9749 23.876 34.7749 24.519C34.5749 25.1639 34.6422 25.8593 34.7768 27.2481L34.9002 28.5136C35.3731 33.4054 35.6104 35.8504 34.1786 36.9365C32.7468 38.0225 30.5935 37.0318 26.2906 35.0504L25.1747 34.5382C23.9523 33.9737 23.341 33.6933 22.6924 33.6933C22.0438 33.6933 21.4326 33.9737 20.2101 34.5382L19.0961 35.0504C14.7913 37.0318 12.638 38.0225 11.2081 36.9383C9.77439 35.8504 10.0118 33.4054 10.4847 28.5136L10.6081 27.25C10.7426 25.8593 10.8099 25.1639 10.6081 24.5209C10.4099 23.876 9.96318 23.3545 9.07344 22.3152L8.26221 21.3656C5.12757 17.7018 3.56118 15.8681 4.10698 14.1091C4.65279 12.3502 6.95377 11.8286 11.552 10.7893L12.7408 10.5202C14.0474 10.2248 14.6997 10.0771 15.225 9.679C15.7502 9.28085 16.0848 8.67708 16.7577 7.46954L17.3708 6.37042Z" fill="#FFE922"/>
<path d="M25.2783 34.3105C24.0771 33.7558 23.4084 33.4434 22.6924 33.4434C22.1552 33.4434 21.6447 33.6193 20.916 33.9414L20.1055 34.3115L18.9912 34.8232C16.831 35.8175 15.2372 36.55 14.0049 36.9033C12.7758 37.2556 11.9794 37.2092 11.3594 36.7393C10.7333 36.2642 10.4406 35.4776 10.3809 34.1416C10.3211 32.805 10.4962 30.9918 10.7334 28.5381L10.8564 27.2744C10.9724 26.0759 11.0472 25.3471 10.916 24.7129L10.8467 24.4463C10.6296 23.7408 10.1392 23.1751 9.26367 22.1523L8.45215 21.2031C6.87949 19.365 5.71871 18.0067 5.01562 16.8896C4.31451 15.7757 4.10551 14.9581 4.3457 14.1836C4.58517 13.4119 5.2101 12.8817 6.40137 12.4121C7.5974 11.9407 9.29985 11.5548 11.6074 11.0332L12.7959 10.7637C14.0811 10.4732 14.7977 10.3163 15.376 9.87793C15.9529 9.44053 16.3148 8.7783 16.9766 7.59082L16.9756 7.58984L17.5889 6.49219C18.7771 4.36139 19.6548 2.78792 20.4541 1.74414C21.2532 0.700666 21.9273 0.250014 22.6924 0.25C23.4575 0.25 24.1315 0.700675 24.9307 1.74414C25.5301 2.52694 26.1734 3.60787 26.959 4.99805L27.7959 6.49219L28.4092 7.5918V7.59082C29.0712 8.77886 29.434 9.44067 30.0088 9.87793C30.4412 10.2069 30.9537 10.3773 31.7256 10.5645L32.5908 10.7637L33.7793 11.0332C36.0869 11.5557 37.788 11.9419 38.9834 12.4131C40.174 12.8824 40.7987 13.4116 41.0391 14.1836C41.2793 14.9572 41.0705 15.7744 40.3691 16.8887C39.666 18.0057 38.5053 19.3641 36.9326 21.2031L36.1211 22.1504C35.2452 23.1753 34.755 23.741 34.5361 24.4443V24.4453C34.3179 25.1494 34.3958 25.9046 34.5283 27.2725L34.6514 28.5381C34.8886 30.9916 35.0634 32.8042 35.0039 34.1406C34.9444 35.4767 34.6524 36.2632 34.0273 36.7373C33.4063 37.2083 32.6089 37.2554 31.3799 36.9033C30.1477 36.5503 28.5546 35.8175 26.3955 34.8232H26.3945L25.2783 34.3105Z" stroke="#FFFAC4" stroke-width="0.5"/>
</g>
<defs>
<filter id="filter0_d_41_586" x="0" y="0" width="45.3848" height="45.3848" filterUnits="userSpaceOnUse" color-interpolation-filters="sRGB">
<feFlood flood-opacity="0" result="BackgroundImageFix"/>
<feColorMatrix in="SourceAlpha" type="matrix" values="0 0 0 0 0 0 0 0 0 0 0 0 0 0 0 0 0 0 127 0" result="hardAlpha"/>
<feOffset dy="4"/>
<feGaussianBlur stdDeviation="2"/>
<feComposite in2="hardAlpha" operator="out"/>
<feColorMatrix type="matrix" values="0 0 0 0 1 0 0 0 0 1 0 0 0 0 1 0 0 0 0.25 0"/>
<feBlend mode="normal" in2="BackgroundImageFix" result="effect1_dropShadow_41_586"/>
<feBlend mode="normal" in="SourceGraphic" in2="effect1_dropShadow_41_586" result="shape"/>
</filter>
</defs>
</svg>
